<svg version="1.1" id="Layer_1" xmlns="http://www.w3.org/2000/svg" xmlns:xlink="http://www.w3.org/1999/xlink" x="0px" y="0px"
	 width="100%" viewBox="0 0 1024 1008" enable-background="new 0 0 1024 1008" xml:space="preserve">
<path fill="#000000" opacity="1.000000" stroke="none" 
	d="
M740.472412,747.469910 
	C713.586609,772.859253 683.116943,791.671265 648.597778,804.121338 
	C636.884399,808.346069 626.485901,815.671997 614.786438,820.123169 
	C591.671204,828.917664 567.969360,834.188477 543.093567,835.603271 
	C517.013550,837.086487 491.584595,833.981384 466.306885,828.718201 
	C455.444122,826.456421 444.837677,822.759521 434.310730,819.144043 
	C423.069214,815.283081 411.333313,813.768188 399.866791,811.005432 
	C377.261292,805.558777 355.731812,797.221130 334.909851,787.039551 
	C303.222290,771.545166 274.897675,751.210754 249.834366,726.427185 
	C218.409241,695.352783 194.110321,659.486267 177.976624,618.218201 
	C169.332062,596.106384 163.713211,573.141968 161.236084,549.656921 
	C159.039322,528.829834 159.658997,507.841614 162.236526,486.921112 
	C165.408127,461.178894 171.796295,436.349274 181.254929,412.251221 
	C192.824722,382.774597 208.122406,355.401306 227.196884,330.111603 
	C246.491455,304.530060 269.163635,282.365875 294.631500,263.016083 
	C329.180908,236.766403 367.052002,216.858704 408.704163,204.566605 
	C424.293732,199.965912 440.139404,196.279160 456.420837,194.403900 
	C464.324219,193.493591 472.239838,192.516327 480.170288,191.815414 
	C483.275238,191.540985 484.321777,189.459457 485.583557,187.309555 
	C490.014984,179.759064 494.912384,172.685318 503.485443,169.209045 
	C509.533356,166.756683 515.185120,166.934906 520.195251,171.548386 
	C524.653503,175.653595 524.957764,180.768250 523.654419,186.269379 
	C523.282166,187.840546 522.505615,189.409164 523.312317,191.479980 
	C526.923584,191.917847 530.686584,192.744614 534.453003,192.760696 
	C545.342224,192.807205 555.887573,195.287491 566.544495,196.931534 
	C598.969177,201.933762 629.300476,214.008392 659.613037,225.697311 
	C692.883240,238.526718 722.207092,258.067444 748.352478,282.384949 
	C772.456299,304.803650 792.767212,330.137726 808.463074,359.116302 
	C810.546631,362.963104 812.935486,366.362305 817.242737,368.263184 
	C820.994263,369.918823 822.969727,373.695099 825.558716,377.087708 
	C828.064392,375.860809 829.389893,373.453552 831.322876,371.758667 
	C834.327942,369.123810 837.782898,367.893433 841.443481,369.731049 
	C845.170837,371.602142 845.270813,375.181305 844.580444,378.859375 
	C842.602966,389.394623 838.783875,399.334381 834.609680,409.129395 
	C833.193787,412.451782 833.145325,415.344971 834.411987,418.709961 
	C837.328247,426.456726 839.360352,434.495026 841.165283,442.439301 
	C843.298035,443.050079 844.749878,441.951569 846.262512,441.500580 
	C852.703674,439.580139 855.831421,441.980743 855.046021,448.707214 
	C854.390015,454.325470 853.752502,460.181580 851.100830,465.121613 
	C846.433533,473.816620 847.280762,482.843353 848.245056,491.894287 
	C849.823975,506.715393 849.391235,521.464600 847.824524,536.240479 
	C842.872375,582.943848 828.135620,626.362122 804.327942,666.788635 
	C786.813416,696.529236 765.973938,723.614807 740.472412,747.469910 
M759.755737,638.988586 
	C761.618469,641.734436 760.903687,645.118652 761.426331,648.915588 
	C762.193542,647.787659 762.437500,647.539307 762.554688,647.241089 
	C776.553711,611.598022 788.261353,575.233887 797.049255,537.943237 
	C802.475098,514.919006 806.627930,491.825623 805.035400,467.936066 
	C804.057922,453.272766 800.924561,439.402893 794.501160,426.192261 
	C793.372803,423.871643 789.672791,420.437561 793.447998,418.606018 
	C796.473755,417.138062 797.409058,421.788635 798.554871,424.112793 
	C812.263977,451.918945 812.388733,481.191925 807.547729,510.921295 
	C804.957275,526.829590 801.411316,542.545837 797.121094,558.083374 
	C789.991943,583.902893 782.239746,609.524658 772.499695,634.504883 
	C769.762390,641.525085 767.054749,648.556824 764.237671,655.830688 
	C769.945923,655.665710 770.017578,655.716858 772.443115,652.320312 
	C793.789490,622.428833 810.097839,590.075867 821.012634,554.923523 
	C826.118103,538.480835 828.915710,521.650513 831.410400,504.745392 
	C832.126770,499.891174 833.532349,494.462646 830.115540,489.781830 
	C824.928711,482.676331 821.004272,474.846436 819.737244,466.220551 
	C818.348450,456.765839 816.621765,446.773010 825.756531,439.471497 
	C826.754761,438.673615 827.068420,437.411255 826.742371,436.276917 
	C824.106079,427.103973 822.963257,417.300201 815.585022,410.123657 
	C809.374207,404.082489 804.346802,397.136322 803.030640,388.437286 
	C802.055725,381.994385 798.879333,376.983521 795.091370,372.108917 
	C766.486816,335.299042 731.812683,305.087616 693.363098,279.075317 
	C650.398193,250.008286 603.403809,230.125793 552.830200,218.802673 
	C548.231323,217.773041 543.406128,214.755981 538.348511,217.688202 
	C520.799194,227.862701 501.059723,230.490768 481.601898,233.992355 
	C476.842072,234.848907 475.348907,233.027267 475.637146,228.017838 
	C475.852142,224.281296 476.114410,220.547455 476.394653,216.208450 
	C415.430542,229.195175 363.676453,257.449402 320.824524,301.744934 
	C292.283264,331.247742 270.861694,365.282013 256.152985,404.790497 
	C259.610748,403.761963 261.789490,403.052521 264.000946,402.466644 
	C273.843170,399.859009 278.977448,403.833405 279.179535,414.114105 
	C279.332581,421.899475 276.823303,428.805237 272.552765,435.207947 
	C263.901245,448.178802 252.678696,458.964111 242.208267,470.334686 
	C234.820984,478.357086 236.311340,487.671814 235.156693,496.436127 
	C236.972275,497.692566 238.089218,496.948578 239.200394,496.822784 
	C246.043854,496.048157 249.796204,498.132690 252.804962,504.374329 
	C254.819290,508.553040 254.470963,512.834106 253.195221,517.052124 
	C250.230713,526.853638 245.691620,535.895569 239.795944,544.279541 
	C238.507492,546.111877 236.451111,547.728210 237.014313,550.429749 
	C238.880371,559.380615 241.352005,568.175598 244.349182,576.800781 
	C245.896851,581.254639 248.614151,581.717590 252.388580,578.624023 
	C253.934052,577.357300 255.394867,575.987671 256.928040,574.705322 
	C259.769836,572.328308 262.969666,570.806458 266.572815,572.562988 
	C270.291351,574.375793 271.164673,577.829651 271.292206,581.780396 
	C271.634064,592.371216 268.471436,602.217102 264.609955,611.761597 
	C262.234314,617.633606 262.946136,622.302063 265.960327,627.654175 
	C280.655182,653.746521 297.973694,677.863220 318.295715,699.885620 
	C354.005768,738.583618 396.166473,767.847778 444.955139,787.660828 
	C462.889771,794.944092 481.315857,800.850220 500.120026,805.010193 
	C513.977112,808.075745 527.787231,811.630310 542.814514,807.472656 
	C565.472046,801.204041 587.881226,794.630859 609.501221,785.307556 
	C654.415955,765.938782 693.866333,738.609863 728.869202,704.612732 
	C732.212585,701.365417 733.839844,697.789062 734.034424,693.189026 
	C734.505615,682.050110 735.202148,670.920593 735.829773,659.788513 
	C736.389709,649.856995 743.579407,639.500671 751.676392,636.722900 
	C754.620667,635.712830 757.220825,635.617371 759.755737,638.988586 
M221.992661,593.360962 
	C221.666870,592.779114 221.328415,592.203857 221.017181,591.614380 
	C215.014847,580.245239 217.245178,574.058716 229.155975,569.101624 
	C230.074966,568.719116 231.000443,568.510620 231.496750,567.453735 
	C233.451675,563.290710 230.214966,555.233276 225.815994,553.561646 
	C221.733887,552.010437 218.018646,549.788696 214.447067,547.337341 
	C201.394821,538.378967 196.413849,518.746704 203.649475,505.002808 
	C206.826828,498.967468 211.364685,498.268463 216.578506,502.716278 
	C220.153595,505.766022 221.853607,510.161896 225.606476,514.903625 
	C225.787628,505.462219 226.960327,496.912262 224.004807,489.552948 
	C219.029922,477.165283 214.869766,464.621979 211.906952,451.671844 
	C209.002991,438.978851 209.142197,426.239441 212.703842,413.634369 
	C214.484039,407.334106 217.266571,401.486969 220.950348,396.078613 
	C225.638794,389.195251 230.994019,389.328827 235.260300,396.358276 
	C236.059021,397.674316 236.240601,399.596283 238.454346,399.978607 
	C238.890152,398.857819 239.376968,397.810638 239.710388,396.716736 
	C243.210632,385.233185 247.588272,374.050476 252.714462,363.241119 
	C265.125610,337.070435 280.716705,312.889130 300.272644,291.450714 
	C319.704468,270.148346 341.806885,252.166367 367.197906,238.234894 
	C391.052765,225.146301 416.452667,216.617523 443.065613,211.647491 
	C453.494415,209.699875 464.071594,208.352737 474.715729,207.830292 
	C477.533478,207.691986 481.168915,202.565887 480.484497,199.355301 
	C479.666748,195.519424 476.504852,197.376389 474.343994,197.542374 
	C460.080505,198.638031 445.980713,200.724442 432.008484,203.945038 
	C416.915985,207.423874 401.958221,211.335953 387.510742,216.879761 
	C345.733948,232.910416 308.150269,255.828796 274.712585,285.650757 
	C245.309372,311.874512 221.245438,342.278900 202.761475,376.974884 
	C183.748459,412.663971 171.064621,450.380341 166.819733,490.896423 
	C162.752075,529.720886 165.987274,567.670776 178.286362,604.672119 
	C191.995468,645.915344 214.585724,681.886475 244.296799,713.538330 
	C268.329285,739.140686 295.774475,760.225403 326.455322,777.226807 
	C348.404114,789.389404 371.858856,797.762085 395.690521,805.221497 
	C397.871063,805.904053 400.220490,806.046936 402.491486,806.440430 
	C400.913757,804.785583 399.149445,803.924683 397.417145,803.003540 
	C359.407013,782.792908 326.982330,755.838257 300.067230,722.258240 
	C284.802856,703.213928 271.552032,682.822693 261.257111,660.707581 
	C253.585861,644.228516 245.841293,627.902100 235.039703,613.165771 
	C230.517365,606.996094 226.571503,600.403870 221.992661,593.360962 
M348.651245,764.836365 
	C366.419220,779.246277 385.265381,792.011292 405.835510,802.112732 
	C412.994354,805.628296 420.024872,810.061340 427.824097,811.379150 
	C439.743652,813.393066 451.754150,815.401489 464.010956,814.845825 
	C472.986877,814.438843 482.007751,815.049133 490.986938,814.679688 
	C497.456207,814.413574 503.889832,813.280823 510.964111,812.462341 
	C398.944916,788.529358 316.109528,726.354492 260.306366,627.400940 
	C254.844955,635.487183 257.654541,642.549744 260.937256,649.609131 
	C281.668427,694.190796 310.258850,732.802795 348.651245,764.836365 
M679.004272,780.539368 
	C674.754150,783.960327 670.503967,787.381226 666.253784,790.802185 
	C667.096313,791.162842 667.684204,791.020142 668.229675,790.780823 
	C690.080688,781.196045 709.673645,768.021545 727.642578,752.493408 
	C760.648376,723.970825 786.847717,689.943726 807.404541,651.574829 
	C824.179871,620.264038 835.431030,587.013733 840.811218,551.867737 
	C843.027588,537.389587 844.435547,522.786316 844.455078,508.139771 
	C844.465637,500.191620 843.240112,492.241852 842.519897,483.670654 
	C839.324097,486.216949 837.298035,488.313446 837.196411,491.656250 
	C836.872620,502.297577 835.245178,512.750916 833.494019,523.255493 
	C831.136169,537.399719 827.686279,551.246643 823.074036,564.717041 
	C812.502686,595.591797 797.858154,624.496521 779.101685,651.267761 
	C778.300049,652.411987 776.868530,653.403503 777.372437,655.240906 
	C779.441467,655.784363 781.557556,656.187805 783.566467,656.895569 
	C790.344299,659.283630 792.214722,663.494080 789.475891,670.098328 
	C787.402344,675.098389 783.997070,679.207947 780.417969,683.166992 
	C770.412415,694.234558 757.288330,701.008911 744.968079,708.902893 
	C739.268188,712.555115 732.959839,715.444275 729.151367,721.558411 
	C715.489319,743.491394 698.415710,762.548279 679.004272,780.539368 
M784.452515,330.013580 
	C780.461365,324.526031 776.320557,319.163300 771.371399,313.918213 
	C769.217957,318.368469 767.221619,316.393616 765.240112,314.176819 
	C758.028442,306.108521 750.821777,298.034454 742.912354,290.628906 
	C721.172363,270.273712 697.302307,252.824051 671.097595,238.676224 
	C652.772705,228.782761 633.866638,220.262772 613.364014,215.709824 
	C593.653992,211.332901 573.693237,209.278961 553.565918,208.438797 
	C550.525146,208.311890 548.621399,209.661255 547.161743,212.469376 
	C652.163940,235.353424 736.285583,290.935852 803.138245,373.989349 
	C807.041260,369.961945 807.947510,366.155090 804.423279,360.719543 
	C797.912170,350.677124 791.856567,340.336639 784.452515,330.013580 
M292.047241,308.549194 
	C290.088043,311.243134 288.139496,313.944916 286.167999,316.629822 
	C266.783691,343.028992 252.312500,371.907288 242.484741,403.133179 
	C241.933487,404.884644 240.982574,406.617493 243.226868,407.936462 
	C245.188156,409.089111 247.044632,408.744293 248.897110,407.697021 
	C250.503311,406.788910 250.970093,405.135559 251.515442,403.582458 
	C257.607971,386.231689 265.605560,369.711456 275.033905,354.020813 
	C301.691528,309.657135 337.050873,273.886993 382.020599,247.876343 
	C400.510712,237.181610 419.675323,228.015793 440.096710,221.600418 
	C448.375336,218.999680 456.628754,216.318649 465.520294,213.473633 
	C463.520782,213.473633 462.164581,213.268509 460.890045,213.504501 
	C442.596924,216.891617 424.263062,219.894302 406.554901,226.064224 
	C373.308868,237.647903 344.148987,255.651840 318.678955,279.845184 
	C309.363525,288.693665 300.824890,298.241943 292.047241,308.549194 
M656.431824,791.929810 
	C686.467407,769.038635 726.642090,724.354797 729.858704,710.204407 
	C678.006409,759.674011 618.065613,794.494507 547.705933,811.152649 
	C548.354797,811.512634 548.586914,811.751282 548.826111,811.758545 
	C573.292664,812.501953 597.675171,812.052856 621.712524,806.642944 
	C633.940308,803.890930 645.988770,800.734802 656.431824,791.929810 
M576.326233,826.848755 
	C581.642944,825.516968 587.001038,824.329041 592.264465,822.812439 
	C597.365906,821.342590 602.330994,819.401062 607.427917,817.913147 
	C612.561340,816.414551 617.242920,814.016418 622.902527,811.573425 
	C619.367310,811.002747 617.439331,812.759827 615.152893,813.106873 
	C594.077759,816.306396 573.011475,818.672791 551.577026,816.729797 
	C542.848022,815.938538 533.981567,814.010254 525.218140,815.462097 
	C509.423920,818.078674 493.598053,819.680908 477.580658,819.430420 
	C469.148529,819.298523 460.712616,819.407104 452.278412,819.407104 
	C456.877777,821.300720 461.543854,822.404175 466.183411,823.609741 
	C481.012115,827.462830 496.138031,829.877319 511.371582,830.557861 
	C532.806213,831.515198 554.300171,831.548767 576.326233,826.848755 
M567.722351,204.625214 
	C574.104858,205.318207 580.487366,206.011200 586.869873,206.704193 
	C573.452087,202.356796 559.499756,200.938232 544.883667,198.163391 
	C548.263977,202.043152 551.137207,204.420425 555.905151,203.992203 
	C559.499084,203.669418 563.179993,204.314545 567.722351,204.625214 
M828.153564,420.675018 
	C827.809631,425.848602 830.660095,430.296814 831.461670,435.219025 
	C832.032166,438.721771 833.536316,441.780975 836.925598,444.492462 
	C835.476257,438.867065 834.537598,433.780243 832.792114,428.987274 
	C831.737732,426.092041 832.323364,422.237061 828.153564,420.675018 
z"/>
<path fill="#000000" opacity="1.000000" stroke="none" 
	d="
M523.024292,396.985931 
	C527.750244,402.575043 532.653870,408.025055 537.162231,413.784454 
	C544.759644,423.490082 549.650208,434.567169 552.772522,446.443878 
	C553.193359,448.044647 553.454590,449.706818 553.600342,451.357239 
	C554.326660,459.584686 549.693848,464.022125 541.487305,462.912140 
	C534.150452,461.919739 527.476990,458.727020 520.529297,456.440277 
	C514.846191,454.569794 509.239349,452.320648 503.135010,452.190887 
	C501.307922,452.152100 499.455597,452.166565 497.652832,452.423340 
	C495.672546,452.705383 493.500153,453.182648 492.664581,455.241882 
	C491.737335,457.527161 493.636444,458.992584 495.014496,460.334442 
	C501.540131,466.688690 509.557983,470.860107 517.388611,475.270844 
	C524.498962,479.275879 531.974548,482.693054 538.805847,487.115845 
	C545.972717,491.755859 554.094055,491.232910 561.840210,492.666443 
	C572.325378,494.606812 582.835571,496.344482 592.977417,499.762451 
	C595.990845,500.778046 598.921570,501.982513 601.549927,503.780029 
	C608.321167,508.410736 608.360596,514.309998 601.663879,519.003784 
	C596.420898,522.678650 590.513672,524.980713 584.492615,526.959351 
	C541.844299,540.974304 498.726685,543.318115 455.108032,531.922546 
	C449.944122,530.573486 445.000275,528.511597 440.424103,525.724915 
	C436.189423,523.146118 432.244354,520.216064 432.910461,514.404053 
	C433.586914,508.501709 437.302551,504.949432 442.419434,502.518433 
	C451.705353,498.106903 461.507294,498.258026 471.342377,499.411835 
	C491.541870,501.781525 511.176147,507.344574 531.290710,510.224731 
	C537.683228,511.140045 543.960815,510.663452 549.897095,508.065094 
	C554.038452,506.252380 554.321289,504.213165 551.351562,500.820862 
	C547.578308,496.510834 543.028137,493.865540 537.140198,493.484436 
	C505.645599,491.446014 474.225983,490.559448 443.434631,499.389984 
	C438.807312,500.717041 434.183899,502.278900 429.838135,504.325470 
	C416.630249,510.545471 412.008362,521.710632 415.842651,537.796753 
	C420.053314,555.461853 428.262207,571.511902 436.597839,587.442566 
	C442.842255,599.376465 448.895386,611.492554 457.734222,621.857300 
	C471.620850,638.141296 488.676086,648.776550 510.482361,649.745667 
	C531.701172,650.688721 548.518066,640.827881 562.154846,625.630310 
	C576.296143,609.870483 587.055176,591.826965 593.374573,571.492981 
	C595.533875,564.544617 596.259766,557.155823 597.735474,549.987854 
	C598.440613,546.562805 599.235962,543.125488 601.352295,540.216431 
	C603.339355,537.484985 605.905151,535.343933 609.380493,536.734131 
	C612.140808,537.838379 613.721252,536.997498 615.405212,535.069397 
	C618.740540,531.250488 622.915283,528.523865 627.336548,526.127014 
	C634.715576,522.126709 642.306702,520.950378 649.588806,525.828979 
	C656.957214,530.765442 658.072937,538.770813 657.689697,546.732422 
	C656.743225,566.393616 646.609436,581.191406 631.911560,593.353210 
	C623.813721,600.053772 615.170471,605.994141 606.318542,611.645081 
	C605.254272,612.324524 603.812012,612.647766 603.235779,614.570435 
	C607.202393,615.648193 611.121460,616.797241 615.083374,617.771912 
	C623.399292,619.817505 631.274170,622.894287 638.413879,627.666931 
	C648.206482,634.213013 650.135437,643.000183 643.967102,653.098389 
	C638.499146,662.049805 629.629761,666.806396 620.742493,671.423523 
	C598.522583,682.967224 574.796143,688.664734 549.856079,690.400574 
	C532.082336,691.637695 514.307617,693.988953 496.521545,692.892944 
	C464.822510,690.939514 433.465637,686.880920 404.959320,671.143188 
	C397.915649,667.254578 391.223755,662.929749 385.954620,656.737732 
	C379.738800,649.433289 380.249420,641.662903 387.117981,635.000977 
	C395.088867,627.269958 405.212189,623.877808 415.501984,621.017700 
	C421.734741,619.285217 428.097321,617.828979 434.606079,617.339722 
	C436.537476,617.194519 438.608734,616.479126 440.054962,618.632141 
	C439.587158,621.536865 437.166626,620.944336 435.365906,621.158386 
	C423.243195,622.599915 411.280151,624.607056 400.323608,630.430786 
	C395.733093,632.870789 391.391632,635.669678 388.210815,639.888367 
	C384.425690,644.908508 384.382507,648.534973 388.210480,653.497681 
	C392.771576,659.410889 398.871643,663.409912 405.291626,667.075012 
	C424.174622,677.855164 444.989014,682.119812 466.077301,685.751099 
	C490.930511,690.030640 515.770874,689.241028 540.739197,687.029907 
	C564.895874,684.890686 588.732178,681.642944 611.142517,671.738831 
	C621.537659,667.144775 631.725952,662.073425 639.133606,653.041138 
	C646.132996,644.506714 644.781250,636.301636 635.505432,630.205139 
	C624.362183,622.881287 611.602783,620.357300 598.765747,618.128845 
	C596.616211,617.755737 594.889465,618.800476 593.200928,619.909668 
	C589.024353,622.652771 584.809937,625.340881 580.687195,628.162842 
	C575.891785,631.445251 574.428162,630.894409 573.189026,625.066772 
	C572.884827,623.635925 572.757019,622.167480 572.457520,620.086670 
	C566.467407,626.722473 560.984924,633.100281 554.403198,638.450073 
	C525.328857,662.082153 487.901459,655.866516 463.241516,633.143799 
	C448.574921,619.629395 439.822540,602.142639 430.790375,584.891357 
	C423.451996,570.875122 416.691162,556.577332 412.653900,541.146484 
	C406.799561,518.770447 414.594208,504.298584 436.538818,496.984283 
	C451.673859,491.939667 467.329834,489.966705 483.139221,488.964783 
	C491.281281,488.448730 499.448792,488.080627 507.603973,488.095978 
	C515.741699,488.111298 523.863281,489.267120 532.519409,488.804565 
	C531.522034,486.746857 529.781433,486.221283 528.323059,485.415131 
	C517.831055,479.615326 507.035309,474.332520 497.354462,467.156677 
	C496.551208,466.561279 495.664612,466.059692 494.935699,465.385803 
	C491.510223,462.218872 487.505554,459.171204 489.267395,453.654724 
	C490.355927,450.246307 496.491455,447.709869 501.840088,448.106812 
	C510.095306,448.719421 517.713318,451.723969 525.352478,454.588684 
	C530.347778,456.461914 535.325439,458.327667 540.629883,459.194092 
	C547.797424,460.364868 550.907288,457.722290 549.764954,450.450104 
	C547.890015,438.514008 542.119263,428.152252 535.410217,418.338928 
	C527.103455,406.188538 515.938843,396.440521 506.876007,384.915314 
	C499.396698,375.403870 494.289612,364.874115 493.857971,352.565613 
	C493.714844,348.484833 493.257172,343.486969 497.819275,341.599609 
	C502.686340,339.586029 506.336273,343.118561 509.430725,346.512512 
	C516.802917,354.598236 518.181458,364.969452 520.080872,375.114899 
	C520.938599,379.696655 521.660461,384.304718 523.242554,388.715668 
	C525.406433,394.748749 530.908508,397.965668 536.460205,396.445282 
	C541.611206,395.034698 543.996094,390.644531 542.861206,384.083984 
	C540.808167,372.215607 533.731873,363.176025 525.707153,354.827209 
	C521.444824,350.392731 516.902161,346.160828 512.094238,342.328979 
	C490.672516,325.256165 491.421814,306.857178 505.533295,285.795319 
	C510.903839,277.779541 516.992126,270.206116 520.395447,261.029236 
	C523.013977,253.968613 523.586548,246.788803 521.398438,239.469864 
	C520.996399,238.125061 520.200256,236.225464 522.230957,235.624222 
	C524.445312,234.968582 524.934387,236.918121 525.393372,238.557343 
	C528.661682,250.230438 526.003601,260.883270 520.035522,271.076416 
	C514.982605,279.706512 508.448181,287.353516 503.822479,296.276550 
	C495.987640,311.390106 497.673340,323.280884 509.964386,335.141418 
	C514.872986,339.878021 520.172668,344.206635 525.206970,348.816376 
	C533.664246,356.560425 540.515869,365.475494 544.770203,376.231232 
	C544.831421,376.385956 544.918945,376.530487 544.977356,376.686096 
	C547.601318,383.684296 549.218872,390.973724 543.207886,396.785034 
	C537.259949,402.535339 530.294800,400.545044 523.244995,396.787598 
	C517.016479,387.689453 516.883606,377.447601 514.761719,367.764862 
	C512.997009,359.712128 510.841797,351.827545 503.665039,346.666809 
	C500.319641,344.261108 498.417236,345.151398 498.070129,349.247406 
	C497.616302,354.602203 498.256470,359.842529 499.976532,364.987000 
	C504.347931,378.061432 513.235962,387.837494 523.024292,396.985931 
M585.919067,501.560547 
	C574.947083,498.684631 563.895386,496.289856 551.781677,495.498138 
	C552.882690,496.754639 553.427795,497.355896 553.950317,497.976166 
	C559.489685,504.551361 558.203369,509.309906 550.066711,512.281189 
	C545.623596,513.903687 541.011292,514.368958 536.309875,514.261230 
	C526.587463,514.038330 517.207275,511.650085 507.768890,509.700256 
	C491.158936,506.268921 474.674469,502.036652 457.468964,503.113892 
	C452.097687,503.450165 446.846741,504.094696 442.196716,507.066071 
	C435.610291,511.274780 435.397156,517.367615 441.736023,521.893127 
	C445.843536,524.825562 450.562042,526.513794 455.324432,528.052551 
	C469.708221,532.700195 484.623138,534.072815 499.577606,534.798401 
	C525.210327,536.042053 550.402466,533.022644 574.994019,525.634155 
	C583.102417,523.197998 591.332886,520.872009 598.615723,516.323364 
	C603.946045,512.994141 603.897705,510.198792 598.671631,506.632477 
	C595.032532,504.149170 590.866333,502.961548 585.919067,501.560547 
M581.557800,613.422607 
	C585.193481,612.678223 588.887512,612.786377 592.501099,613.246277 
	C595.228271,613.593384 597.362671,612.861084 599.487854,611.378967 
	C605.496277,607.188660 611.580811,603.106873 617.561584,598.877991 
	C627.373474,591.940186 636.867981,584.647766 643.853638,574.627808 
	C650.631592,564.905640 654.274475,554.211975 653.773804,542.295593 
	C653.263062,530.139465 644.142517,523.951477 632.738220,527.987488 
	C626.486572,530.200012 621.269348,533.994629 616.927673,538.999817 
	C615.222473,540.965576 614.392334,542.988464 614.876892,545.814026 
	C616.300110,554.113281 613.154419,561.183472 608.140442,567.547852 
	C607.073608,568.902039 605.970825,571.064819 603.817017,570.199097 
	C601.518372,569.275330 602.006409,566.867310 602.173462,564.925232 
	C602.794373,557.707581 604.670288,550.851746 608.250549,544.497498 
	C608.932983,543.286316 610.319641,541.756897 608.259521,540.687683 
	C606.519287,539.784485 605.478943,541.315613 604.662476,542.544861 
	C602.689270,545.515808 601.772339,548.910400 601.282654,552.384216 
	C598.862488,569.554016 593.774292,585.805481 584.803162,600.732910 
	C581.960205,605.463501 579.039429,610.147217 575.667542,615.646057 
	C578.057556,614.721069 579.439575,614.186157 581.557800,613.422607 
M587.712524,617.277283 
	C579.161438,617.365723 576.728333,619.186951 577.971924,624.920715 
	C581.696716,622.781372 585.560974,621.051636 587.712524,617.277283 
M611.484802,550.475281 
	C611.392029,550.169800 611.326843,549.850891 611.188843,549.567505 
	C611.149902,549.487427 610.801025,549.439026 610.757019,549.497925 
	C608.084412,553.067810 607.096497,557.120605 606.869019,562.363953 
	C609.801575,558.461792 610.710205,554.805786 611.484802,550.475281 
z"/>
<path fill="#000000" opacity="1.000000" stroke="none" 
	d="
M487.060791,738.787598 
	C490.863586,735.979858 493.493713,732.831543 495.055634,728.503723 
	C496.944214,723.270874 500.043243,718.670837 505.689270,716.577026 
	C508.963348,715.362793 512.320007,714.877136 515.118591,717.391418 
	C517.787170,719.788940 518.527954,722.981262 517.654968,726.538330 
	C517.354858,727.761230 516.634094,729.033691 517.453369,730.353394 
	C520.104675,730.979309 520.822693,727.018860 523.909180,727.919250 
	C524.085327,731.366638 521.640442,732.903809 519.015320,733.513123 
	C515.352905,734.363220 512.825500,736.409973 510.566376,739.184387 
	C509.196747,740.866455 507.456909,742.191528 505.427002,743.075195 
	C500.545868,745.199829 498.380493,744.286499 493.677368,738.096497 
	C483.490112,744.280579 482.475708,744.196899 479.681915,736.837830 
	C477.227203,737.777954 475.269623,739.723877 472.599640,740.247620 
	C469.187805,740.916870 467.875031,738.607849 466.781158,736.196716 
	C453.682251,739.173340 452.732208,738.840820 449.058014,729.862122 
	C446.511597,730.868774 443.982422,731.983337 441.374420,732.864624 
	C439.135010,733.621460 436.680054,734.191284 434.925507,731.974304 
	C433.185181,729.775330 434.300476,727.467285 435.417358,725.422302 
	C437.521179,721.570312 440.821350,718.690491 443.809357,715.559204 
	C445.113922,714.192139 446.850128,713.023193 447.026337,710.280457 
	C441.202942,711.275879 437.942871,715.541199 433.856689,718.400024 
	C429.799957,721.238281 426.903473,725.343628 423.303833,729.062744 
	C422.008789,725.478088 422.008789,725.478088 426.533783,717.622498 
	C421.825989,720.642029 417.939972,723.528503 412.967499,723.768433 
	C408.180756,723.999451 405.993927,721.879456 403.998383,714.739807 
	C400.201691,714.477112 396.423767,717.013855 392.457703,715.262573 
	C388.310638,713.431274 387.334106,709.926636 387.134338,705.598328 
	C384.096283,705.838806 381.177582,706.136047 378.251343,706.278931 
	C376.197418,706.379272 374.113831,706.102112 373.126190,703.968933 
	C372.168335,701.899841 373.183502,700.031616 374.365173,698.390564 
	C376.575378,695.321045 379.923706,693.692200 383.061523,691.806763 
	C385.563385,690.303528 388.462769,689.293213 390.614044,685.648499 
	C384.616913,685.539551 380.261536,688.265686 375.733154,690.162903 
	C371.010101,692.141785 366.752869,695.007446 363.002930,697.978577 
	C360.330353,696.821533 362.082977,695.044006 361.587311,693.548889 
	C357.895996,693.206116 353.708344,693.890564 352.352173,688.778992 
	C351.978943,687.372192 349.957855,688.330444 348.691833,688.309509 
	C344.032654,688.232300 342.462921,686.146973 343.970917,681.488464 
	C345.473511,676.846741 348.371399,672.913147 350.965240,668.838318 
	C351.394928,668.163269 351.675873,667.393555 351.994995,666.731079 
	C350.357330,664.308167 348.469269,664.236816 346.255890,665.426270 
	C341.562988,667.948242 336.839783,670.413757 332.140198,672.923340 
	C331.157135,673.448303 330.342407,674.523926 328.766113,673.595947 
	C328.187805,671.187012 330.276764,670.201111 331.726776,669.144958 
	C340.104767,663.042175 349.233459,658.201111 358.538788,653.703735 
	C360.576172,652.719116 363.411591,651.513306 364.511230,654.629333 
	C365.505463,657.446533 362.632202,658.052368 360.669922,658.830872 
	C358.074738,659.860474 355.387299,660.689819 353.068848,662.496277 
	C357.938507,666.506592 366.297760,666.849609 370.778900,663.276123 
	C373.784363,660.879456 374.644775,658.070068 372.231537,654.583252 
	C366.018036,645.605591 355.059998,645.332336 349.215698,654.147644 
	C348.293427,655.538757 347.286133,656.721130 345.632874,655.954346 
	C343.608643,655.015442 343.433899,653.042847 344.210785,651.218201 
	C346.374725,646.135864 350.896484,644.443848 355.857849,643.860962 
	C363.459991,642.967834 374.573273,649.514526 377.597565,656.545349 
	C379.390320,660.713074 378.514526,664.361572 374.908051,667.243835 
	C371.887177,669.658142 368.421600,670.361633 364.605316,670.284058 
	C362.192017,670.234985 359.420532,667.907593 357.464142,670.092896 
	C353.464630,674.560303 349.139404,678.911377 346.172729,685.161743 
	C351.191376,685.327393 354.542358,684.014709 357.738190,681.730713 
	C361.934387,678.731689 366.287842,675.946594 370.645142,673.182129 
	C372.396606,672.070984 374.509155,671.241028 375.810699,673.696106 
	C376.992401,675.925110 375.100708,676.991577 373.525116,677.963806 
	C369.556641,680.412476 365.496979,682.721313 361.616821,685.301208 
	C360.036743,686.351807 357.997223,687.158447 357.364502,690.079712 
	C362.090118,690.826111 366.166412,689.586304 369.809814,686.954163 
	C372.909027,684.715149 375.737823,682.104675 378.726135,679.708191 
	C380.273193,678.467529 382.017151,676.755798 383.965424,678.627136 
	C386.348236,680.915894 383.599152,682.310913 382.428528,684.019836 
	C384.671783,683.556274 386.740601,682.952759 388.848724,682.741516 
	C391.059143,682.519958 393.240112,682.852112 394.370697,685.218628 
	C395.463928,687.507019 394.580505,689.492249 393.159271,691.222961 
	C390.457031,694.513855 386.688934,696.365112 383.126434,698.529785 
	C381.099121,699.761658 378.313202,700.018188 376.779907,703.326233 
	C382.288727,703.618042 386.896698,702.939453 390.549530,698.954529 
	C394.118622,695.060974 398.192841,691.841492 403.486938,690.956909 
	C407.254272,690.327393 411.255707,690.858887 412.478394,695.262756 
	C413.661591,699.524597 410.578156,702.036865 407.318909,703.987427 
	C405.874359,704.851990 403.917114,705.436646 402.893036,703.560303 
	C401.788330,701.536377 403.483368,700.594543 405.123016,699.935547 
	C406.774811,699.271545 408.750427,699.060364 409.272186,696.981384 
	C409.063416,695.884827 408.404327,695.435913 407.490356,695.455444 
	C401.888855,695.575562 393.257996,702.428711 391.744385,707.876831 
	C390.811096,711.236267 392.596191,712.618042 395.522339,712.841125 
	C400.305389,713.205688 404.359222,711.521057 407.475403,707.830139 
	C409.304596,705.663635 411.072876,703.484802 413.510620,701.914734 
	C422.155273,696.346863 429.021851,698.053955 433.495056,707.251709 
	C436.252930,704.311890 439.029907,703.176575 441.843872,707.198853 
	C442.516693,708.160522 444.029816,707.694519 445.158142,707.320801 
	C447.394073,706.580139 449.505707,706.622192 451.023193,708.667419 
	C452.607758,710.803101 452.149414,713.081848 451.063263,715.285950 
	C449.405548,718.649902 446.651215,721.092346 444.030701,723.659729 
	C442.094696,725.556519 439.741608,727.151611 438.067474,731.015198 
	C444.070831,728.965454 448.768982,727.279724 451.572571,722.461609 
	C454.036774,718.226746 456.858948,714.274231 461.488434,712.228699 
	C465.038330,710.660095 468.689728,710.217957 471.323059,713.976196 
	C473.035461,716.420166 471.290985,721.991211 468.288605,724.146851 
	C466.872345,725.163696 465.213348,726.048523 463.928131,724.216370 
	C462.809570,722.621765 463.993927,721.467346 465.336700,720.544495 
	C466.933563,719.447083 468.778015,718.478149 468.533417,716.008728 
	C461.823914,716.046509 452.967255,726.561646 454.476318,732.561523 
	C455.371246,736.119751 458.153534,736.237610 460.821045,735.098267 
	C464.510437,733.522278 467.807709,731.391479 469.782745,727.531677 
	C471.827545,723.535645 474.255219,719.728882 476.635040,715.913940 
	C477.658447,714.273254 479.251740,712.959351 481.228607,714.137756 
	C483.478424,715.479065 482.245056,717.285095 481.274750,718.867981 
	C477.745483,724.625366 473.529510,730.019592 471.115723,737.610657 
	C482.932129,733.104370 485.054565,722.168579 490.466217,714.459412 
	C490.462128,711.814514 487.381714,712.520508 487.363403,709.594482 
	C491.696594,710.327454 494.318634,707.641907 497.190552,704.691467 
	C499.456055,702.364014 500.637878,705.790588 502.101318,707.232361 
	C504.849426,707.032227 506.996887,705.356873 509.341217,704.178528 
	C511.089783,703.299561 512.972534,702.625000 514.157837,704.722656 
	C515.535950,707.161682 513.647461,708.654663 511.784943,709.321045 
	C508.356140,710.547913 504.782684,711.411499 501.220276,712.205566 
	C499.544708,712.579102 497.994141,712.814819 497.017822,714.453674 
	C492.927277,721.320312 488.395966,727.940308 485.089355,735.243042 
	C484.450714,736.653503 482.542419,739.395752 487.060791,738.787598 
M410.297211,720.179260 
	C415.608582,720.884766 418.887848,717.431702 422.234009,714.242554 
	C427.178314,709.530579 427.138031,709.488281 423.026794,703.926697 
	C418.061554,705.438965 411.310760,711.089172 409.201019,715.373413 
	C408.386078,717.028259 408.068176,718.502625 410.297211,720.179260 
M507.517578,736.406128 
	C508.779327,732.138733 503.185059,729.933899 504.442261,725.554688 
	C501.122162,728.372925 499.964874,732.106934 498.966766,735.899658 
	C498.529968,737.559509 498.460632,739.348938 500.125977,740.370422 
	C501.792694,741.392944 503.359863,740.378113 504.700928,739.419067 
	C505.623779,738.759033 506.315460,737.775818 507.517578,736.406128 
M513.632935,721.926453 
	C513.416199,720.001526 512.598022,719.151672 510.744476,720.405457 
	C507.924438,722.312866 507.517975,726.968018 510.032776,730.366821 
	C512.467651,728.307251 512.950073,725.416077 513.632935,721.926453 
z"/>
<path fill="#000000" opacity="1.000000" stroke="none" 
	d="
M558.746521,724.157166 
	C559.321594,720.421204 560.195679,717.184448 561.903259,714.296631 
	C564.389954,710.091003 567.814514,707.449524 573.050720,708.978088 
	C574.335510,709.353271 575.230713,709.354614 576.127502,708.276184 
	C577.037842,707.181458 578.224670,706.515625 579.630493,707.406921 
	C581.364868,708.506592 581.224915,710.167542 580.749939,711.859131 
	C579.169067,717.490051 578.031372,723.190186 578.100342,729.071594 
	C578.109741,729.867554 578.301514,730.661377 578.481873,731.997559 
	C581.333984,730.336914 581.551392,727.992615 581.799255,725.525146 
	C582.563721,717.914734 582.891418,710.244812 584.647644,702.759705 
	C585.065430,700.979309 585.491150,699.188110 586.099243,697.467651 
	C587.425110,693.716248 589.078369,690.043762 594.015259,690.761780 
	C596.989502,691.194336 599.481567,698.174622 598.273071,702.025024 
	C597.759705,703.660461 597.008179,705.502319 594.903137,704.826111 
	C592.941956,704.196106 592.885620,702.442017 593.694153,700.681458 
	C594.311646,699.336975 595.012756,697.986938 594.398254,696.370056 
	C588.789612,700.933655 585.346680,733.467102 590.025940,743.014587 
	C595.580933,732.664490 594.603516,722.930725 591.276123,712.905701 
	C594.991272,710.866821 595.891418,716.481140 599.200684,715.576782 
	C600.433716,714.934204 599.844360,713.672485 599.781799,712.580139 
	C599.587646,709.187561 600.215332,705.942993 601.476013,702.810791 
	C603.515198,697.744263 608.567322,694.781128 612.358154,696.405945 
	C616.627869,698.236023 618.590759,704.552185 616.313293,709.406921 
	C614.931213,712.352966 612.650940,714.499268 609.938965,716.275879 
	C608.427917,717.265686 606.657349,718.408752 608.141968,720.667480 
	C609.664673,722.984253 611.688538,722.928955 613.754395,721.510010 
	C618.800842,718.043640 621.600891,712.961975 621.308411,707.089600 
	C621.036194,701.624207 621.045288,696.117859 620.546509,690.912781 
	C619.543152,688.703674 617.082581,690.884399 615.875244,688.475403 
	C618.760193,686.206116 620.831970,683.416016 621.269531,679.122253 
	C621.596497,675.914368 624.584717,678.001770 626.298279,678.947937 
	C628.992920,676.962952 630.128540,674.103882 631.832764,671.670898 
	C632.732605,670.386292 633.892517,669.254639 635.578064,670.244751 
	C637.347595,671.284302 637.410278,672.945190 636.479675,674.589050 
	C634.729492,677.680969 632.137085,680.099121 629.500183,682.364441 
	C626.982239,684.527405 626.025879,686.993347 626.151367,690.239502 
	C626.389465,696.398438 626.299683,702.570068 626.541138,708.728760 
	C626.622803,710.812134 627.293579,712.872314 627.735168,715.149597 
	C631.893494,712.308228 633.614258,706.948120 632.049377,701.707397 
	C630.509155,696.549316 630.312866,691.560181 632.571289,686.597717 
	C634.259766,682.887695 637.149719,680.476624 641.205261,681.326294 
	C645.175781,682.158142 647.056274,685.353943 647.330383,689.473450 
	C647.645874,694.215088 645.785645,697.849426 642.183350,700.792419 
	C640.561157,702.117676 638.258118,703.427185 640.524780,705.988647 
	C642.872314,708.641663 645.309509,707.422913 646.892639,705.353027 
	C650.861023,700.164490 654.013000,694.923523 651.006104,687.658569 
	C649.269348,683.462524 648.922668,678.707031 645.887634,674.941467 
	C645.224609,674.118896 645.051453,672.749573 645.004272,671.617371 
	C644.928955,669.811584 645.661621,668.225830 647.639038,667.941467 
	C649.463562,667.679138 650.187988,669.125488 650.805786,670.570068 
	C651.646301,672.535217 650.889648,674.976501 652.696045,676.745667 
	C655.490845,676.246521 655.662659,674.085754 655.767517,671.877625 
	C655.855103,670.033875 656.537598,668.428650 658.547791,668.340088 
	C660.889832,668.237000 661.557190,670.081909 661.778748,672.028442 
	C662.398743,677.475830 661.573730,683.046143 663.200195,688.412781 
	C663.720764,690.130432 663.797180,692.056213 665.620178,693.086792 
	C669.262756,689.841125 669.897400,685.528870 667.300049,680.141418 
	C665.049683,675.473694 664.229980,670.770203 665.441956,665.622375 
	C666.531921,660.992615 668.764221,657.346069 673.602478,656.660400 
	C678.248413,656.001953 680.782349,659.384216 682.727173,663.109009 
	C683.171265,663.959595 683.638184,664.798279 684.109680,665.670227 
	C687.011169,664.179260 685.919128,661.023926 687.555664,658.849609 
	C690.315613,660.907776 689.426392,663.389709 688.272400,665.401733 
	C686.146423,669.108643 685.292603,672.903076 685.075623,677.196716 
	C684.659973,685.419922 680.891541,687.999878 672.467529,686.689941 
	C670.854370,687.619690 671.543945,689.363831 671.108459,690.713318 
	C670.280762,693.277954 669.556152,696.084351 666.329834,696.452576 
	C663.255981,696.803345 661.498413,694.652893 660.025940,692.309692 
	C657.679138,688.574890 657.445679,684.143311 656.111084,679.818481 
	C652.849243,680.386963 652.917969,682.304260 653.826843,684.546814 
	C656.690186,691.612488 653.958435,703.374329 648.333557,708.360840 
	C644.343750,711.897949 640.235229,711.717529 636.070557,708.514038 
	C633.705933,711.449707 634.035583,715.293762 631.274109,717.540588 
	C627.698914,720.449707 625.606018,717.054932 623.036926,715.336365 
	C619.735168,719.429749 617.378479,723.972351 612.149963,725.563354 
	C606.001526,727.434265 603.829468,721.294739 599.351135,719.025452 
	C597.700012,722.815918 598.862427,726.319763 598.438232,729.658569 
	C597.905212,733.853882 596.968079,737.848328 595.050476,741.593140 
	C593.874878,743.888855 592.285767,746.010864 589.447510,745.955505 
	C586.605347,745.900085 585.079834,743.689514 584.011841,741.368774 
	C583.187317,739.577148 582.722290,737.620178 581.972229,735.359436 
	C578.842834,735.791016 575.370911,736.384888 573.877869,731.695923 
	C571.509521,734.479492 570.657288,737.727905 567.529785,738.681946 
	C563.934143,739.778870 562.299194,736.488831 559.784363,734.971313 
	C557.440186,737.166260 555.360474,739.576477 552.845459,741.379395 
	C546.034485,746.262024 539.271545,744.386536 536.394531,736.565063 
	C531.768005,723.987305 534.992493,712.589294 543.000122,702.465027 
	C547.209656,697.142761 553.320190,695.644592 557.050232,698.099365 
	C560.950806,700.666321 562.049866,707.964478 559.200378,713.613281 
	C558.395935,715.208008 557.150940,716.636841 555.891174,717.930664 
	C554.478638,719.381348 552.680420,720.919495 550.771729,718.857544 
	C548.741089,716.663818 550.646851,715.345398 552.320862,714.102234 
	C555.163818,711.991089 556.734192,709.196899 556.820435,705.600586 
	C556.865784,703.707214 556.870850,701.774231 554.868591,700.860718 
	C552.843384,699.936707 551.279968,701.286255 550.018005,702.558899 
	C544.124695,708.501953 541.920044,716.165527 540.214050,724.050293 
	C539.317444,728.194275 539.140198,732.282288 540.664978,736.330566 
	C542.233521,740.494934 544.861389,741.829956 548.894165,739.912964 
	C555.258667,736.887695 559.133240,732.055664 558.746521,724.157166 
M566.920532,717.516174 
	C564.966919,723.337769 562.117920,729.124878 565.787170,735.448486 
	C570.570984,732.619263 575.391479,718.973450 573.531189,714.314148 
	C572.625854,712.046692 571.030762,711.674500 569.329041,713.467285 
	C568.437134,714.406982 567.907104,715.690186 566.920532,717.516174 
M674.472168,681.769531 
	C675.398376,683.179199 676.394958,684.778320 678.372314,683.893738 
	C681.155945,682.648438 680.946350,679.893066 680.984314,677.461731 
	C681.008484,675.912903 681.267578,673.689636 678.929321,673.632141 
	C674.786377,673.530090 672.873108,670.531006 670.157715,666.606506 
	C670.868652,670.345459 671.174744,672.794556 671.829651,675.146606 
	C672.400330,677.196411 673.364441,679.136719 674.472168,681.769531 
M607.059265,703.816162 
	C606.207336,707.072144 605.510803,710.325989 606.883606,713.886841 
	C611.950317,708.289062 612.945190,704.050964 610.431152,699.636658 
	C608.347168,699.836060 608.054932,701.660400 607.059265,703.816162 
M637.200439,692.549438 
	C637.464905,694.663330 636.608826,696.995361 638.176331,699.085693 
	C642.765503,693.841187 643.316711,688.185120 639.725159,684.743286 
	C636.973206,686.371887 637.330933,689.129211 637.200439,692.549438 
M677.200989,662.586609 
	C676.414856,661.412781 675.918884,659.810547 673.962524,660.332947 
	C672.477539,666.023010 673.944763,668.820068 679.377808,670.172180 
	C679.691895,667.538147 678.300232,665.439270 677.200989,662.586609 
z"/>
<path fill="#000000" opacity="1.000000" stroke="none" 
	d="
M380.078552,667.689514 
	C380.264801,665.191956 381.370880,663.908813 383.588135,664.200195 
	C384.980591,664.383240 385.954773,665.355103 386.100189,666.859375 
	C386.239258,668.297852 385.719666,669.528137 384.364014,670.105225 
	C382.263092,670.999573 380.893951,670.091309 380.078552,667.689514 
z"/>
<path fill="#000000" opacity="1.000000" stroke="none" 
	d="
M486.395264,702.583130 
	C488.526428,704.278687 488.508850,705.926697 486.907227,707.467285 
	C485.837128,708.496521 484.451294,708.431885 483.194489,707.720520 
	C482.043640,707.069214 481.638855,705.905884 481.955994,704.710938 
	C482.504639,702.643555 483.794037,701.587646 486.395264,702.583130 
z"/>
</svg>